<svg width="263" height="263" viewBox="0 0 263 263" fill="none" xmlns="http://www.w3.org/2000/svg">
<path d="M30 262.5C13.4315 262.5 0 249.069 0 232.5V30C0 13.4315 13.4315 0 30 0H232.5C249.069 0 262.5 13.4315 262.5 30V232.5C262.5 249.069 249.069 262.5 232.5 262.5H30Z" fill="#16BD16"/>
<path d="M184 105.839C184 97.9337 181.177 90.5806 176.364 84.3677C178.531 77.4967 180.922 65.4274 175.178 56C164.147 56 156.898 63.7599 153.438 68.6268C147.743 66.7283 141.524 65.6585 134.991 65.6585C128.459 65.6585 122.239 66.7283 116.545 68.6268C113.085 63.7599 105.841 56 94.8044 56C88.296 66.6781 92.2265 78.3506 94.4466 83.2727C89.1096 89.7067 85.9828 97.4716 85.9828 105.839C85.9828 124.825 102.063 140.696 123.651 144.895C117.236 148.275 112.443 154.418 110.972 161.871H104.528C98.1713 161.871 95.7012 159.23 92.2657 154.764C88.8743 150.299 85.2232 147.291 80.8418 146.045C78.4796 145.789 76.8917 147.632 78.9501 149.265C85.9044 154.117 86.3798 162.062 89.1684 167.261C91.707 171.942 96.9069 176.156 102.788 176.156H110.487V206H159.496V166.794C159.496 157.21 154.115 148.993 146.332 144.895C167.92 140.696 184 124.825 184 105.839Z" fill="black"/>
</svg>
