<svg width="263" height="263" viewBox="0 0 263 263" fill="none" xmlns="http://www.w3.org/2000/svg">
<path d="M0 262.5V0H262.5V262.5H0Z" fill="#16BD16"/>
<path d="M142.369 56C152.178 75.093 107.202 86.884 103.022 102.789C99.1907 117.405 129.746 134.388 129.774 134.388C125.134 128.34 121.721 123.359 117.067 113.947C109.195 98.0303 165.011 83.6256 142.369 56ZM172.242 82.4418C172.242 82.4418 132.783 84.575 130.777 105.789C129.885 115.236 141.157 120.206 141.478 127.074C141.742 132.688 134.79 137.388 134.79 137.388C134.79 137.388 147.441 135.361 151.398 126.793C155.787 117.287 142.843 110.864 144.153 103.258C145.407 95.9792 172.242 82.4418 172.242 82.4418ZM110.268 131.481C110.268 131.481 74.1529 131.047 74.1529 139.639C74.1529 148.617 121.428 149.285 155.188 143.764C155.188 143.764 164.161 138.572 166.557 136.638C144.432 140.436 93.9936 140.858 93.9936 137.576C93.9936 134.552 110.268 131.481 110.268 131.481ZM179.71 131.481C176.171 131.716 172.354 132.864 168.898 134.95C177.035 133.474 183.946 137.716 183.946 142.545C183.946 153.422 165.22 163.643 165.22 163.643C165.22 163.643 194.201 160.877 194.201 143.014C194.201 134.904 187.499 130.965 179.71 131.481ZM101.573 148.171C96.0279 148.171 87.7516 151.828 87.7516 155.297C87.7516 162.271 129.439 167.639 160.315 157.454L149.615 151.922C128.687 157.56 90.1481 155.719 101.573 148.171ZM106.701 163.83C99.1071 163.83 94.1051 167.686 94.1051 170.581C94.1051 179.536 139.457 180.438 157.417 171.331L146.048 165.237C132.63 170.007 98.9538 170.734 106.701 163.83ZM81.3981 171.894C69.0255 171.683 61 176.36 61 180.239C61 200.867 187.624 199.918 187.624 178.833C187.624 175.328 182.817 173.629 181.048 172.832C191.4 192.991 77.3854 191.385 77.3854 179.489C77.3854 176.781 85.7731 174.191 93.5478 175.457L86.9713 172.269C85.0346 172.023 83.1676 171.929 81.3981 171.894ZM201 185.771C181.744 201.125 132.951 206.693 83.8503 197.211C132.937 214.112 200.763 204.63 201 185.771Z" fill="black"/>
</svg>
