<svg width="263" height="263" viewBox="0 0 263 263" fill="none" xmlns="http://www.w3.org/2000/svg">
<path d="M0 262.5V0H262.5V262.5H0Z" fill="#16BD16"/>
<g clip-path="url(#clip0_0_1)">
<path d="M187.421 168.609C195.918 155.917 199.93 140.75 198.818 125.517C197.707 110.284 191.537 95.8595 181.289 84.5352C171.04 73.2109 157.3 65.6366 142.253 63.016C127.207 60.3953 111.715 62.8786 98.2417 70.0712C84.7679 77.2638 74.0844 88.7532 67.8889 102.714C61.6933 116.674 60.3411 132.304 64.0472 147.121C67.7532 161.938 76.3049 175.092 88.3433 184.491C100.382 193.891 115.216 198.998 130.49 199C137.309 199 143.36 194.639 145.514 188.169L172.351 107.667" stroke="black" stroke-width="10" stroke-linecap="round" stroke-linejoin="round"/>
<path d="M141 107L157 154" stroke="black" stroke-width="10" stroke-linecap="round" stroke-linejoin="round"/>
<path d="M121 110.225C117.476 108.137 113.47 107.025 109.385 107C105.301 106.976 101.282 108.04 97.7332 110.085C94.1847 112.13 91.2319 115.084 89.1721 118.65C87.1124 122.215 86.0183 126.267 86.0002 130.396C85.9821 134.525 87.0406 138.586 89.069 142.17C91.0975 145.754 94.0242 148.735 97.5547 150.811C101.085 152.888 105.095 153.988 109.179 154C113.264 154.012 117.279 152.936 120.822 150.88" stroke="black" stroke-width="10" stroke-linecap="round" stroke-linejoin="round"/>
</g>
<defs>
<clipPath id="clip0_0_1">
<rect width="160" height="160" fill="white" transform="translate(51 51)"/>
</clipPath>
</defs>
</svg>
