<svg width="263" height="263" viewBox="0 0 263 263" fill="none" xmlns="http://www.w3.org/2000/svg">
<path d="M0 262.5V0H262.5V262.5H0Z" fill="#16BD16"/>
<path fill-rule="evenodd" clip-rule="evenodd" d="M164.466 94.4406C162.484 94.5031 160.634 95.2687 159.228 96.675L119.753 136.15L111.319 127.719C150.156 88.9469 157.247 88.5625 164.466 94.4406ZM121.35 137.553L160.697 98.4625C162.869 96.3563 166.319 96.3563 168.491 98.4625C169.575 99.55 170.15 101.019 170.087 102.488C170.022 104.022 169.384 105.425 168.234 106.447L126.65 143.112L121.35 137.553ZM124.287 143.494L114.513 145.984C114.322 146.113 114.131 146.113 113.938 145.984C113.813 145.794 113.813 145.537 113.938 145.347L119.878 139.406L124.287 143.494ZM99.375 139.406L109.787 128.994L117.644 137.044L99.8219 140.875C99.4375 140.941 99.0562 140.684 98.9906 140.3C98.9281 140.044 98.9906 139.853 99.1844 139.662L99.375 139.406ZM67.1156 193.506C66.8625 193.444 66.6062 193.253 66.5406 193.059C66.4781 192.803 66.4781 192.55 66.5406 192.356L74.9094 183.925L85.7688 194.722L67.1156 193.506ZM88.5781 182.328C87.75 182.775 87.3031 183.672 87.4938 184.566L89.2812 192.231C89.4094 192.741 89.1531 193.253 88.7719 193.506C88.3875 193.828 87.8125 193.828 87.4938 193.506L76.6344 182.328L109.978 148.925L126.141 145.475L133.869 153.203C120.072 164.7 104.869 174.472 88.6438 182.203V182.328H88.5781ZM151.172 136.378C146.297 141.491 140.903 146.731 135.466 151.925L128.056 144.516L169.641 107.916C170.022 107.597 170.406 107.216 170.725 106.766C169.809 114.888 161.7 125.334 151.172 136.378ZM167.916 94.6313C161.719 88.1813 161.975 77.9594 168.425 71.7656C174.303 66.1438 183.375 65.7594 189.697 70.8687L175.387 85.1156C175.006 85.5625 175.006 86.2 175.387 86.6469L186.503 97.6969C180.244 100.763 172.706 99.4844 167.85 94.5031L167.916 94.6313ZM190.719 94.6313C189.953 95.3344 189.188 96.0375 188.291 96.6125L177.625 85.9437L191.231 72.3406C197.106 78.6625 196.916 88.5 190.719 94.6313ZM72.7656 167.531C69.8437 169.359 65.2344 167.287 62.4812 162.906C59.9687 158.906 56 145.094 56 131C56 111.125 63.9063 92.0313 77.9688 77.9688C92.0313 63.9063 111.125 56 131 56C140.562 56 150.031 57.8125 150.178 57.8719C154.978 59.8062 157.838 63.9719 156.563 67.1719C155.288 70.3719 150.931 71.6375 146.844 70C146.844 70 138.969 68.5 131 68.5C114.437 68.5 98.5312 75.0937 86.8125 86.8125C75.0937 98.5312 68.5 114.437 68.5 131C68.5 142.75 71.8125 154.25 73.0813 156.275C75.8313 160.659 75.6875 165.703 72.7656 167.531ZM196.109 108.922C199.378 107.809 203.206 110.394 204.656 114.688C204.656 114.688 206 122.813 206 131C206 150.875 198.094 169.969 184.031 184.031C169.969 198.094 150.875 206 131 206C120.219 206 109.562 203.687 105.459 201.8C102.325 200.359 100.944 196.647 102.375 193.516C103.806 190.384 107.516 189.006 110.656 190.438C113.125 191.563 122.031 193.5 131 193.5C147.563 193.5 163.469 186.906 175.187 175.187C186.906 163.469 193.5 147.563 193.5 131C193.5 124.187 192.406 117.406 192.406 117.406C191.181 113.837 192.841 110.034 196.109 108.922Z" fill="url(#paint0_linear_0_1)"/>
<defs>
<linearGradient id="paint0_linear_0_1" x1="56" y1="131" x2="206" y2="131" gradientUnits="userSpaceOnUse">
<stop offset="0.986957"/>
</linearGradient>
</defs>
</svg>
