<svg width="263" height="263" viewBox="0 0 263 263" fill="none" xmlns="http://www.w3.org/2000/svg">
<path d="M0 262.5V0H262.5V262.5H0Z" fill="#16BD16"/>
<path fill-rule="evenodd" clip-rule="evenodd" d="M192.765 190.211L131 206L69.2353 190.211L56 56H206C201.588 100.732 197.176 145.479 192.765 190.211ZM196.367 63.8947H65.6335L77.4901 184.104L131 197.797L184.51 184.104L196.367 63.8947ZM94.827 142.842H112.474L112.905 152.711L131 158.231L149.095 152.711L150.405 134.947H111.595L110.699 119.158H151.301L152.611 103.368H91.7422L90.4152 87.5789H171.154L168.948 119.158L165.846 164.553L131 174.822L96.1539 164.553L94.827 142.842Z" fill="black"/>
</svg>
