<svg width="263" height="263" viewBox="0 0 263 263" fill="none" xmlns="http://www.w3.org/2000/svg">
<path d="M0 262.5V0H262.5V262.5H0Z" fill="#16BD16"/>
<path d="M97.127 179.576C87.3643 179.576 81.3089 173.564 81.3089 163.836H93.9634C93.9634 165.823 93.9634 166.365 97.127 166.365C99.8705 166.365 100.291 164.3 100.291 163.062C100.291 161.255 98.8571 159.759 97.127 159.759C88.4024 159.759 81.3089 152.353 81.3089 143.244C81.3089 134.135 88.4024 126.729 97.127 126.729C107.409 126.729 112.945 134.909 112.945 142.625H100.291C100.291 141.825 99.9694 139.941 97.127 139.941C95.3969 139.941 93.9634 141.438 93.9634 143.244C93.9634 145.05 95.3969 146.547 97.127 146.547C105.852 146.547 112.945 153.953 112.945 163.062C112.945 172.48 106.148 179.576 97.127 179.576ZM131.927 159.759H157.236C157.236 148.844 148.709 139.941 138.254 139.941C127.799 139.941 119.272 148.844 119.272 159.759C119.272 170.674 127.799 179.576 138.254 179.576C146.484 179.576 153.454 174.029 156.074 166.365H138.254C134.769 166.365 131.927 163.397 131.927 159.759ZM206 65.3411L197.053 56L150.909 104.177L130.073 82.4235L121.126 91.7647L150.909 122.859L206 65.3411ZM182.545 99.1705V186.182C182.545 189.821 179.702 192.788 176.217 192.788H74.9817C71.4968 192.788 68.6545 189.821 68.6545 186.182V80.4882C68.6545 76.8498 71.4968 73.8823 74.9817 73.8823H170.978L182.495 61.8576C180.518 61.135 178.417 60.6706 176.217 60.6706H74.9817C64.5269 60.6706 56 69.573 56 80.4882V186.182C56 197.098 64.5269 206 74.9817 206H176.217C186.672 206 195.199 197.098 195.199 186.182V85.9587L182.545 99.1705Z" fill="black"/>
</svg>
