<svg width="263" height="263" viewBox="0 0 263 263" fill="none" xmlns="http://www.w3.org/2000/svg">
<path d="M0 262.5V0H262.5V262.5H0Z" fill="#16BD16"/>
<path fill-rule="evenodd" clip-rule="evenodd" d="M162.143 61.0107C159.602 60.9233 156.942 61.3762 154.275 62.2602C148.941 64.028 143.351 67.4732 137.614 72.2433C135.366 74.1127 133.098 76.2496 130.822 78.5169C128.596 76.3072 126.374 74.2276 124.175 72.3995C118.444 67.6332 112.869 64.1867 107.547 62.4229C102.225 60.659 96.9293 60.6043 92.5801 63.1713C88.2309 65.7382 85.63 70.4503 84.4632 76.0439C83.2964 81.6376 83.425 88.2988 84.5969 95.7564C85.004 98.3467 85.5845 101.064 86.2457 103.833C83.7606 104.603 81.3472 105.412 79.1092 106.306C72.3553 109.002 66.7668 112.229 62.6972 116.068C58.6277 119.907 56 124.566 56 129.682C56 134.798 58.6277 139.451 62.6972 143.29C66.7668 147.129 72.3553 150.362 79.1092 153.058C81.5023 154.014 84.0931 154.874 86.7678 155.688C85.8057 159.362 85.0262 162.928 84.495 166.309C83.3222 173.772 83.1983 180.434 84.3677 186.041C85.5371 191.647 88.1393 196.386 92.5101 198.965C96.8808 201.545 102.2 201.482 107.534 199.714C112.868 197.946 118.452 194.507 124.188 189.737C126.416 187.885 128.669 185.772 130.924 183.528C133.19 185.785 135.452 187.908 137.691 189.77C143.423 194.536 149.004 197.976 154.326 199.74C159.648 201.504 164.943 201.558 169.293 198.991C173.642 196.424 176.236 191.712 177.403 186.119C178.57 180.525 178.441 173.87 177.269 166.413C176.737 163.023 175.957 159.446 174.99 155.759C177.753 154.926 180.426 154.043 182.891 153.058C189.645 150.362 195.233 147.129 199.303 143.29C203.372 139.451 206 134.798 206 129.682C206 124.566 203.372 119.907 199.303 116.068C195.233 112.229 189.645 109.002 182.891 106.306C180.621 105.399 178.17 104.579 175.646 103.8C176.313 101.015 176.904 98.2777 177.314 95.6718C178.487 88.2083 178.611 81.5396 177.441 75.9333C176.272 70.327 173.663 65.5947 169.293 63.0151C167.107 61.7253 164.685 61.098 162.143 61.0107ZM161.844 67.7919C163.439 67.8365 164.799 68.2244 165.963 68.9112C168.291 70.2849 170.011 72.9584 170.929 77.3585C171.847 81.7586 171.815 87.7035 170.731 94.598C170.36 96.9585 169.822 99.4602 169.21 102.023C162.543 100.383 155.237 99.166 147.45 98.4506C143.541 92.9149 139.525 87.8716 135.475 83.3978C137.617 81.2605 139.745 79.2614 141.823 77.5342C147.122 73.1278 152.138 70.1295 156.325 68.742C158.418 68.0483 160.249 67.7473 161.844 67.7919ZM99.9903 67.8114C101.594 67.7656 103.43 68.0658 105.529 68.7616C109.727 70.1531 114.753 73.15 120.057 77.5603C122.092 79.2528 124.172 81.2138 126.27 83.3002C122.191 87.8106 118.141 92.8976 114.206 98.4832C106.452 99.2116 99.1764 100.435 92.5419 102.082C91.9345 99.533 91.3958 97.0441 91.0267 94.6956C89.9424 87.7952 89.9153 81.8494 90.8358 77.4366C91.7562 73.0238 93.4906 70.3301 95.8396 68.9438C97.014 68.2506 98.3864 67.8572 99.9903 67.8114ZM130.924 88.1942C133.579 91.148 136.235 94.3804 138.869 97.8584C136.28 97.7481 133.661 97.6827 131 97.6827C128.286 97.6827 125.617 97.7502 122.979 97.8649C125.613 94.3842 128.268 91.1502 130.924 88.1942ZM131 104.412C135.433 104.412 139.753 104.598 143.955 104.913C146.847 109.159 149.672 113.663 152.365 118.43C154.731 122.619 156.872 126.801 158.82 130.932C156.851 135.117 154.674 139.356 152.276 143.602C150.165 147.341 147.96 150.891 145.719 154.314C140.972 154.72 136.053 154.946 131 154.946C125.825 154.946 120.796 154.707 115.944 154.282C113.74 150.908 111.573 147.411 109.495 143.733C107.102 139.496 104.936 135.264 102.97 131.088C104.944 126.888 107.12 122.633 109.527 118.371C112.205 113.629 115.023 109.151 117.898 104.926C122.146 104.604 126.516 104.412 131 104.412ZM152.346 105.746C157.719 106.431 162.764 107.383 167.459 108.525C166.066 113.194 164.35 118.07 162.271 123.103C160.921 120.442 159.522 117.773 158.012 115.098C156.181 111.856 154.274 108.766 152.346 105.746ZM109.304 105.798C107.416 108.761 105.559 111.792 103.765 114.968C102.235 117.677 100.808 120.382 99.4428 123.077C97.3815 118.074 95.6758 113.226 94.2926 108.583C98.9527 107.439 103.968 106.491 109.304 105.798ZM173.908 110.295C176.219 111.01 178.45 111.756 180.497 112.573C186.723 115.059 191.648 118.002 194.84 121.014C198.032 124.025 199.417 126.896 199.417 129.682C199.417 132.468 198.032 135.339 194.84 138.351C191.648 141.362 186.723 144.305 180.497 146.791C178.222 147.7 175.723 148.523 173.125 149.303C171.272 143.443 168.906 137.329 166.09 131.088C169.328 123.922 171.943 116.935 173.908 110.295ZM87.9837 110.328C89.9266 116.902 92.5081 123.819 95.6995 130.912C92.8656 137.19 90.4881 143.338 88.6267 149.232C86.12 148.472 83.7056 147.671 81.5029 146.791C75.2768 144.305 70.3519 141.362 67.1599 138.351C63.9679 135.339 62.5826 132.468 62.5826 129.682C62.5826 126.896 63.9679 124.025 67.1599 121.014C70.3519 118.002 75.2768 115.059 81.5029 112.573C83.5183 111.768 85.7124 111.033 87.9837 110.328ZM131 114.375C122.038 114.375 114.703 121.874 114.703 131.036C114.703 140.197 122.038 147.696 131 147.696C139.962 147.696 147.297 140.197 147.297 131.036C147.297 121.874 139.962 114.375 131 114.375ZM99.5192 138.917C100.89 141.624 102.317 144.342 103.855 147.065C105.058 149.195 106.287 151.269 107.534 153.306C103.157 152.685 98.9959 151.9 95.0884 150.969C96.331 147.079 97.8176 143.04 99.5192 138.917ZM162.353 138.917C164.062 143.05 165.549 147.095 166.797 150.995C162.877 151.925 158.703 152.708 154.313 153.325C155.577 151.264 156.825 149.164 158.044 147.006C159.57 144.303 160.991 141.605 162.353 138.917ZM93.2103 157.438C99.1094 158.867 105.503 159.964 112.283 160.679C116.809 167.371 121.525 173.384 126.27 178.641C124.148 180.756 122.045 182.741 119.987 184.453C114.688 188.859 109.664 191.851 105.478 193.238C101.291 194.626 98.167 194.443 95.8396 193.069C93.5121 191.695 91.7981 189.022 90.8803 184.622C89.9625 180.222 89.9879 174.283 91.0713 167.389C91.5628 164.261 92.2974 160.912 93.2103 157.438ZM168.681 157.464C169.602 160.959 170.339 164.321 170.833 167.467C171.918 174.367 171.945 180.313 171.024 184.726C170.104 189.139 168.382 191.839 166.033 193.225C163.684 194.612 160.53 194.792 156.331 193.401C152.132 192.009 147.107 189.012 141.803 184.602C139.73 182.878 137.613 180.877 135.475 178.745C140.253 173.468 145.001 167.424 149.557 160.692C156.355 159.982 162.766 158.891 168.681 157.464ZM120.789 161.363C124.135 161.549 127.526 161.675 131 161.675C134.359 161.675 137.64 161.557 140.88 161.382C137.568 165.951 134.191 170.104 130.828 173.845C127.467 170.096 124.097 165.935 120.789 161.363Z" fill="black"/>
</svg>
