<svg width="263" height="263" viewBox="0 0 263 263" fill="none" xmlns="http://www.w3.org/2000/svg">
<path d="M0 262.5V0H262.5V262.5H0Z" fill="#16BD16"/>
<path d="M130.465 56C128.259 56 126.055 56.5165 124.152 57.555L64.2777 90.559C60.411 92.6937 58 96.7353 58 101.005V160.883C58 165.21 60.411 169.194 64.2777 171.328L79.9954 179.982C87.6079 183.559 90.3224 183.554 93.7662 183.554C105.064 183.554 111.525 177.036 111.525 165.728V103.945C111.525 103.022 110.746 102.267 109.779 102.267H102.227C101.2 102.267 100.469 103.022 100.469 103.945V165.672C100.469 170.749 94.9774 175.709 86.0961 171.497L69.6585 162.438C69.0544 162.149 68.6909 161.517 68.6909 160.883V101.061C68.6909 100.369 69.0544 99.7844 69.6585 99.4383L129.532 66.4455C130.076 66.0993 130.804 66.0993 131.409 66.4455L191.282 99.4383C191.887 99.7844 192.25 100.37 192.25 101.005V160.883C192.25 161.517 191.885 162.149 191.341 162.438L131.409 195.498C130.865 195.787 130.076 195.787 129.532 195.498L114.121 186.788C113.698 186.5 113.105 186.445 112.682 186.675C108.392 188.983 107.607 189.27 103.619 190.597C102.653 190.885 101.141 191.46 104.162 193.076L124.152 204.389C126.085 205.427 128.266 206 130.441 206C132.676 206 134.844 205.427 136.778 204.389L196.722 171.328C200.589 169.194 203 165.21 203 160.883V101.061C203 96.7339 200.589 92.75 196.722 90.6154L136.778 57.555C134.875 56.5165 132.67 56 130.465 56ZM146.572 102.188C129.474 102.188 119.266 109.106 119.266 120.645C119.266 133.164 129.407 136.62 145.84 138.178C165.476 140.024 166.986 142.801 166.986 146.494C166.986 152.84 161.618 155.553 148.991 155.553C133.101 155.553 129.595 151.74 128.447 144.24C128.326 143.432 127.605 142.854 126.759 142.854H118.959C117.993 142.854 117.272 143.611 117.272 144.477C117.272 154.111 122.77 165.582 148.991 165.582C167.962 165.582 178.833 158.437 178.833 145.975C178.833 133.629 170.071 130.334 151.705 127.969C133.036 125.661 131.161 124.449 131.161 120.295C131.161 116.834 132.797 112.284 146.572 112.284C158.836 112.284 163.426 114.814 165.299 122.718C165.48 123.468 166.14 124.048 166.986 124.048H174.786C175.269 124.048 175.686 123.819 176.049 123.473C176.351 123.184 176.534 122.719 176.473 122.2C175.265 108.584 165.784 102.188 146.572 102.188Z" fill="black"/>
</svg>
