<svg width="263" height="263" viewBox="0 0 263 263" fill="none" xmlns="http://www.w3.org/2000/svg">
<path d="M0 262.5V0H262.5V262.5H0Z" fill="#16BD16"/>
<path d="M56 56L69.2353 190.211L131 206L192.765 190.211C197.176 145.475 201.588 100.736 206 56H56ZM65.6335 63.8947H196.367L184.51 184.112L131 197.789L77.4901 184.112L65.6335 63.8947ZM98.1358 87.5789L93.8964 134.947H151.206L149.397 154.684L131 157.128L112.827 154.684L112.026 146.789H94.9993L96.7227 166.526L130.957 174.421L165.234 166.526L169.603 119.158H113.749L115.162 103.368H152.042L153.059 111.263H169.379L166.294 87.5789H98.1358Z" fill="black"/>
</svg>
