<svg width="263" height="263" viewBox="0 0 263 263" fill="none" xmlns="http://www.w3.org/2000/svg">
<path d="M0 262.5V0H262.5V262.5H0Z" fill="#16BD16"/>
<path d="M170.103 131.14C169.831 137.166 165.411 142.171 161.056 141.298C161.035 141.298 161.013 141.298 160.991 141.298C156.167 141.305 152.251 136.651 152.246 130.904C152.41 125.141 156.422 120.599 161.26 120.696C166.085 120.724 170.363 125.581 170.103 131.14ZM92.5286 189.541C94.3477 189.605 96.168 189.559 98.2656 189.559V205.264C85.2279 207.89 74.4883 203.48 71.8529 190.35C70.9505 185.522 70.3958 180.611 70.1927 175.67C69.9128 170.439 70.3971 165.149 70.0625 159.927C69.1354 145.559 67.5729 140.654 56 139.974V122.092C56.8294 121.861 57.6706 121.691 58.5169 121.577C64.862 121.205 67.5365 118.887 68.9557 111.441C69.6016 107.257 69.9844 103.022 70.0977 98.7702C70.6003 90.5483 70.4219 82.193 71.5716 74.1045C73.2331 62.4077 79.3281 56.7253 89.3958 56.0893C92.2604 55.9062 95.1341 56.0614 98.3802 56.0614V72.1142C97.0443 72.2275 95.8203 72.4586 94.6042 72.4152C86.3997 72.1158 85.9753 75.4449 85.3763 83.5364C85.0026 88.6108 85.5182 93.7719 85.2279 98.8633C84.9245 103.93 84.3555 108.97 83.5247 113.953C82.3411 121.174 78.6146 126.545 73.4505 131.102C83.4753 138.874 84.6159 150.951 85.2669 163.214C85.6172 169.804 85.457 176.441 86.0182 182.998C86.4557 188.088 88.1172 189.386 92.5286 189.541ZM100.978 120.696H101.133C105.926 120.791 109.749 125.496 109.669 131.208C109.669 131.396 109.664 131.582 109.655 131.768C109.385 137.35 105.37 141.612 100.685 141.291C100.496 141.296 100.309 141.291 100.12 141.281C95.349 140.998 91.6732 136.161 91.9102 130.477C92.1471 124.793 96.207 120.414 100.978 120.696ZM130.846 120.696C136.089 120.648 139.57 124.696 139.598 130.87C139.626 137.21 136.326 141.267 131.117 141.293C125.82 141.321 122.333 137.329 122.305 131.192C122.289 130.879 122.285 130.566 122.293 130.252C122.44 124.799 126.27 120.521 130.846 120.696ZM193.383 112.875C194.777 119.08 197.492 121.261 202.975 121.559C203.874 121.608 204.768 121.79 206 121.953V139.83C205.333 140.091 204.65 140.286 203.956 140.413C196.608 140.958 193.259 144.549 192.517 153.326C192.043 158.93 192.082 164.595 191.757 170.218C191.62 176.393 191.148 182.55 190.345 188.651C188.47 199.706 182.677 205.22 173.105 205.894C170.025 206.111 166.922 205.928 163.6 205.928V189.949C165.388 189.818 166.966 189.636 168.548 189.591C174.267 189.428 176.289 187.232 176.569 180.465C176.879 173.031 177.014 165.588 177.293 158.152C177.698 147.405 180.168 137.804 188.572 131.101C183.763 127.016 179.902 122.069 178.902 115.399C177.693 107.313 177.302 99.0495 176.651 90.8508C176.329 86.7523 176.345 82.6181 176.009 78.5226C175.647 74.1014 173.098 72.5719 169.72 72.4726C167.785 72.4167 165.842 72.4617 163.368 72.4617V56.8587C179.155 53.736 190.06 59.9939 191.073 77.989C191.497 85.5454 191.435 93.1374 191.841 100.694C192.02 104.805 192.535 108.885 193.383 112.875Z" fill="black"/>
</svg>
