<svg width="262" height="263" viewBox="0 0 262 263" fill="none" xmlns="http://www.w3.org/2000/svg">
<path d="M261.5 0H-1V262.5H261.5V0Z" fill="#16BD16"/>
<path d="M171.812 137.5H88.9187V157.9H118.65V250H142.206V157.9H171.812V137.5Z" fill="#010714"/>
<path d="M244.963 163.025C244.963 163.025 233.794 155.575 221.169 155.575C208.544 155.575 204 161.575 204 167.987C204 184.537 250.131 182.881 250.131 216.187C250.131 267.494 179.794 244.737 179.794 244.737V220.125C179.794 220.125 193.244 230.262 209.375 230.262C225.506 230.262 224.894 219.712 224.894 218.262C224.894 202.956 179.175 202.956 179.175 169.025C179.175 122.894 245.788 141.094 245.788 141.094L244.963 163.025Z" fill="#010714"/>
</svg>
