<svg width="263" height="263" viewBox="0 0 263 263" fill="none" xmlns="http://www.w3.org/2000/svg">
<path d="M30 262.5C13.4315 262.5 0 249.069 0 232.5V30C0 13.4315 13.4315 0 30 0H232.5C249.069 0 262.5 13.4315 262.5 30V232.5C262.5 249.069 249.069 262.5 232.5 262.5H30Z" fill="#16BD16"/>
<path d="M72.5787 91.5263H72.7737C83.2362 91.5263 89.75 83.6316 89.75 73.7632C89.555 63.6776 83.2363 56 72.9725 56C62.7088 56 56 63.6776 56 73.7632C56 83.6316 62.51 91.5263 72.5787 91.5263ZM56 103.368H89.75V206H56V103.368ZM206 140.868C206 120.157 190.051 103.368 170.375 103.368C158.926 103.368 148.768 109.076 142.25 117.911V103.368H108.5V206H142.25V146.789C142.25 138.07 148.966 131 157.25 131C165.534 131 172.25 138.07 172.25 146.789V206H206C206 206 206 146.612 206 140.868Z" fill="black"/>
</svg>
